<mxfile host="app.diagrams.net" modified="2023-06-26T09:57:12.729Z" agent="Mozilla/5.0 (Windows NT 10.0; Win64; x64) AppleWebKit/537.36 (KHTML, like Gecko) Chrome/114.0.0.0 Safari/537.36" etag="CBtwpCOuyHuOrhl7mZdE" version="21.5.0" type="device">
  <diagram name="Page-1" id="MyTaShJHIrkFb3RBd3Ip">
    <mxGraphModel dx="1235" dy="691" grid="1" gridSize="10" guides="1" tooltips="1" connect="1" arrows="1" fold="1" page="1" pageScale="1" pageWidth="11000" pageHeight="3000" math="0" shadow="0">
      <root>
        <mxCell id="0" />
        <mxCell id="1" parent="0" />
        <mxCell id="iD3Gvpg37z_KhyB9Bhyj-3" value="Start = 1" style="edgeStyle=orthogonalEdgeStyle;rounded=0;orthogonalLoop=1;jettySize=auto;html=1;exitX=0.5;exitY=1;exitDx=0;exitDy=0;" parent="1" source="iD3Gvpg37z_KhyB9Bhyj-1" target="iD3Gvpg37z_KhyB9Bhyj-2" edge="1">
          <mxGeometry relative="1" as="geometry" />
        </mxCell>
        <mxCell id="iD3Gvpg37z_KhyB9Bhyj-6" value="Start = 0" style="edgeStyle=orthogonalEdgeStyle;rounded=0;orthogonalLoop=1;jettySize=auto;html=1;exitX=1;exitY=0.5;exitDx=0;exitDy=0;entryX=1;entryY=0.75;entryDx=0;entryDy=0;" parent="1" source="iD3Gvpg37z_KhyB9Bhyj-1" target="iD3Gvpg37z_KhyB9Bhyj-1" edge="1">
          <mxGeometry x="0.0286" y="30" relative="1" as="geometry">
            <mxPoint x="610" y="230" as="targetPoint" />
            <Array as="points">
              <mxPoint x="610" y="160" />
              <mxPoint x="610" y="175" />
            </Array>
            <mxPoint as="offset" />
          </mxGeometry>
        </mxCell>
        <mxCell id="iD3Gvpg37z_KhyB9Bhyj-1" value="0: StandBy" style="rounded=0;whiteSpace=wrap;html=1;" parent="1" vertex="1">
          <mxGeometry x="410" y="130" width="120" height="60" as="geometry" />
        </mxCell>
        <mxCell id="iD3Gvpg37z_KhyB9Bhyj-5" value="Start = 0" style="edgeStyle=orthogonalEdgeStyle;rounded=0;orthogonalLoop=1;jettySize=auto;html=1;exitX=0.5;exitY=1;exitDx=0;exitDy=0;entryX=0.5;entryY=0;entryDx=0;entryDy=0;" parent="1" source="iD3Gvpg37z_KhyB9Bhyj-2" target="iD3Gvpg37z_KhyB9Bhyj-7" edge="1">
          <mxGeometry relative="1" as="geometry">
            <mxPoint x="470" y="410" as="targetPoint" />
          </mxGeometry>
        </mxCell>
        <mxCell id="iD3Gvpg37z_KhyB9Bhyj-2" value="1: Alert" style="rounded=0;whiteSpace=wrap;html=1;" parent="1" vertex="1">
          <mxGeometry x="410" y="240" width="120" height="60" as="geometry" />
        </mxCell>
        <mxCell id="iD3Gvpg37z_KhyB9Bhyj-10" style="edgeStyle=orthogonalEdgeStyle;rounded=0;orthogonalLoop=1;jettySize=auto;html=1;exitX=0.5;exitY=1;exitDx=0;exitDy=0;entryX=0.5;entryY=0;entryDx=0;entryDy=0;" parent="1" source="iD3Gvpg37z_KhyB9Bhyj-7" target="iD3Gvpg37z_KhyB9Bhyj-9" edge="1">
          <mxGeometry relative="1" as="geometry" />
        </mxCell>
        <mxCell id="iD3Gvpg37z_KhyB9Bhyj-7" value="Done = 0" style="ellipse;whiteSpace=wrap;html=1;" parent="1" vertex="1">
          <mxGeometry x="410" y="370" width="120" height="80" as="geometry" />
        </mxCell>
        <mxCell id="iD3Gvpg37z_KhyB9Bhyj-12" style="edgeStyle=orthogonalEdgeStyle;rounded=0;orthogonalLoop=1;jettySize=auto;html=1;exitX=0.5;exitY=1;exitDx=0;exitDy=0;entryX=0.5;entryY=0;entryDx=0;entryDy=0;" parent="1" source="iD3Gvpg37z_KhyB9Bhyj-9" target="iD3Gvpg37z_KhyB9Bhyj-11" edge="1">
          <mxGeometry relative="1" as="geometry" />
        </mxCell>
        <mxCell id="iD3Gvpg37z_KhyB9Bhyj-9" value="2: StartCalculation" style="rounded=0;whiteSpace=wrap;html=1;" parent="1" vertex="1">
          <mxGeometry x="410" y="490" width="120" height="60" as="geometry" />
        </mxCell>
        <mxCell id="iD3Gvpg37z_KhyB9Bhyj-14" style="edgeStyle=orthogonalEdgeStyle;rounded=0;orthogonalLoop=1;jettySize=auto;html=1;exitX=0.5;exitY=1;exitDx=0;exitDy=0;entryX=0.5;entryY=0;entryDx=0;entryDy=0;" parent="1" source="iD3Gvpg37z_KhyB9Bhyj-11" target="iD3Gvpg37z_KhyB9Bhyj-13" edge="1">
          <mxGeometry relative="1" as="geometry" />
        </mxCell>
        <mxCell id="iD3Gvpg37z_KhyB9Bhyj-11" value="calculate and store x^2&lt;br&gt;store 0 in expression and 1 in term&lt;br&gt;set count = 0" style="ellipse;whiteSpace=wrap;html=1;" parent="1" vertex="1">
          <mxGeometry x="385" y="590" width="170" height="100" as="geometry" />
        </mxCell>
        <mxCell id="iD3Gvpg37z_KhyB9Bhyj-17" style="edgeStyle=orthogonalEdgeStyle;rounded=0;orthogonalLoop=1;jettySize=auto;html=1;exitX=0.5;exitY=1;exitDx=0;exitDy=0;entryX=0.5;entryY=0;entryDx=0;entryDy=0;" parent="1" source="iD3Gvpg37z_KhyB9Bhyj-13" target="iD3Gvpg37z_KhyB9Bhyj-15" edge="1">
          <mxGeometry relative="1" as="geometry" />
        </mxCell>
        <mxCell id="iD3Gvpg37z_KhyB9Bhyj-13" value="3: AccumulateTerms" style="rounded=0;whiteSpace=wrap;html=1;" parent="1" vertex="1">
          <mxGeometry x="410" y="740" width="120" height="60" as="geometry" />
        </mxCell>
        <mxCell id="iD3Gvpg37z_KhyB9Bhyj-20" value="stop = 1" style="edgeStyle=orthogonalEdgeStyle;rounded=0;orthogonalLoop=1;jettySize=auto;html=1;exitX=0.5;exitY=1;exitDx=0;exitDy=0;entryX=0.5;entryY=0;entryDx=0;entryDy=0;" parent="1" source="iD3Gvpg37z_KhyB9Bhyj-15" target="iD3Gvpg37z_KhyB9Bhyj-19" edge="1">
          <mxGeometry relative="1" as="geometry" />
        </mxCell>
        <mxCell id="iD3Gvpg37z_KhyB9Bhyj-26" value="stop = 0" style="edgeStyle=orthogonalEdgeStyle;rounded=0;orthogonalLoop=1;jettySize=auto;html=1;exitX=1;exitY=0.5;exitDx=0;exitDy=0;entryX=0;entryY=0.5;entryDx=0;entryDy=0;" parent="1" source="iD3Gvpg37z_KhyB9Bhyj-15" target="iD3Gvpg37z_KhyB9Bhyj-25" edge="1">
          <mxGeometry relative="1" as="geometry" />
        </mxCell>
        <mxCell id="iD3Gvpg37z_KhyB9Bhyj-15" value="add term to expression&lt;br&gt;term = term * coeff&lt;br&gt;count++" style="ellipse;whiteSpace=wrap;html=1;" parent="1" vertex="1">
          <mxGeometry x="322.5" y="840" width="295" height="80" as="geometry" />
        </mxCell>
        <mxCell id="iD3Gvpg37z_KhyB9Bhyj-23" style="edgeStyle=orthogonalEdgeStyle;rounded=0;orthogonalLoop=1;jettySize=auto;html=1;exitX=0.5;exitY=1;exitDx=0;exitDy=0;entryX=0.5;entryY=0;entryDx=0;entryDy=0;" parent="1" source="iD3Gvpg37z_KhyB9Bhyj-19" target="iD3Gvpg37z_KhyB9Bhyj-22" edge="1">
          <mxGeometry relative="1" as="geometry" />
        </mxCell>
        <mxCell id="iD3Gvpg37z_KhyB9Bhyj-19" value="4: calcDistance" style="rounded=0;whiteSpace=wrap;html=1;" parent="1" vertex="1">
          <mxGeometry x="410" y="980" width="120" height="60" as="geometry" />
        </mxCell>
        <mxCell id="iD3Gvpg37z_KhyB9Bhyj-24" style="edgeStyle=orthogonalEdgeStyle;rounded=0;orthogonalLoop=1;jettySize=auto;html=1;exitX=0.5;exitY=1;exitDx=0;exitDy=0;" parent="1" source="iD3Gvpg37z_KhyB9Bhyj-22" edge="1">
          <mxGeometry relative="1" as="geometry">
            <mxPoint x="410" y="160" as="targetPoint" />
            <Array as="points">
              <mxPoint x="470" y="1200" />
              <mxPoint x="250" y="1200" />
              <mxPoint x="250" y="160" />
            </Array>
          </mxGeometry>
        </mxCell>
        <mxCell id="iD3Gvpg37z_KhyB9Bhyj-22" value="store (v * expression) in result&lt;br&gt;set done = 1" style="ellipse;whiteSpace=wrap;html=1;" parent="1" vertex="1">
          <mxGeometry x="370" y="1100" width="200" height="80" as="geometry" />
        </mxCell>
        <mxCell id="iD3Gvpg37z_KhyB9Bhyj-27" style="edgeStyle=orthogonalEdgeStyle;rounded=0;orthogonalLoop=1;jettySize=auto;html=1;exitX=0.5;exitY=0;exitDx=0;exitDy=0;entryX=0.5;entryY=1;entryDx=0;entryDy=0;" parent="1" source="iD3Gvpg37z_KhyB9Bhyj-25" target="iD3Gvpg37z_KhyB9Bhyj-28" edge="1">
          <mxGeometry relative="1" as="geometry">
            <mxPoint x="749.608695652174" y="790" as="targetPoint" />
          </mxGeometry>
        </mxCell>
        <mxCell id="iD3Gvpg37z_KhyB9Bhyj-25" value="5: remult" style="rounded=0;whiteSpace=wrap;html=1;" parent="1" vertex="1">
          <mxGeometry x="690" y="850" width="120" height="60" as="geometry" />
        </mxCell>
        <mxCell id="iD3Gvpg37z_KhyB9Bhyj-29" style="edgeStyle=orthogonalEdgeStyle;rounded=0;orthogonalLoop=1;jettySize=auto;html=1;exitX=0;exitY=0.5;exitDx=0;exitDy=0;entryX=1;entryY=0.5;entryDx=0;entryDy=0;" parent="1" source="iD3Gvpg37z_KhyB9Bhyj-28" target="iD3Gvpg37z_KhyB9Bhyj-13" edge="1">
          <mxGeometry relative="1" as="geometry" />
        </mxCell>
        <mxCell id="iD3Gvpg37z_KhyB9Bhyj-28" value="term = term * x^2" style="ellipse;whiteSpace=wrap;html=1;" parent="1" vertex="1">
          <mxGeometry x="690" y="730" width="120" height="80" as="geometry" />
        </mxCell>
        <mxCell id="7kSlmW8RHL6opwV-q5bR-1" value="20" style="text;html=1;strokeColor=none;fillColor=none;align=center;verticalAlign=middle;whiteSpace=wrap;rounded=0;" vertex="1" parent="1">
          <mxGeometry x="557.5" y="480" width="60" height="30" as="geometry" />
        </mxCell>
        <mxCell id="7kSlmW8RHL6opwV-q5bR-2" value="30" style="text;html=1;strokeColor=none;fillColor=none;align=center;verticalAlign=middle;whiteSpace=wrap;rounded=0;" vertex="1" parent="1">
          <mxGeometry x="510" y="720" width="60" height="30" as="geometry" />
        </mxCell>
      </root>
    </mxGraphModel>
  </diagram>
</mxfile>
